<?xml version="1.0" encoding="UTF-8"?>
<svg width="47px" height="57px" viewBox="0 0 47 57" version="1.1" xmlns="http://www.w3.org/2000/svg" xmlns:xlink="http://www.w3.org/1999/xlink">
    <!-- Generator: Sketch 52.6 (67491) - http://www.bohemiancoding.com/sketch -->
    <title>toastmasters-workplace-icon</title>
    <desc>Created with Sketch.</desc>
    <defs>
        <polygon id="path-1" points="0.23345 0.666551786 27.91425 0.666551786 27.91425 39 0.23345 39"></polygon>
    </defs>
    <g id="Symbols" stroke="none" stroke-width="1" fill="none" fill-rule="evenodd">
        <g id="Pro-2" transform="translate(-19.000000, -20.000000)">
            <g id="toastmasters-workplace-icon" transform="translate(19.000000, 20.000000)">
                <path d="M10.0003314,0.720547616 C7.6091855,0.720547616 5.66273444,2.83607542 5.66273444,5.43581122 L5.66273444,6.51375045 C5.66273444,8.68259878 6.93584731,10.5740363 8.75902976,11.1130059 C9.13281198,11.2232497 9.51719796,11.2794524 9.90357214,11.2794524 L10.0984161,11.2794524 C10.6080589,11.2794524 11.1097488,11.1821785 11.5928822,10.9883511 C13.2344754,10.3312117 14.3372656,8.53416597 14.3372656,6.51663264 L14.3372656,5.43581122 C14.3372656,2.83607542 12.3914772,0.720547616 10.0003314,0.720547616 M10.0984161,12 L9.90357214,12 C9.45821459,12 9.01484525,11.9351507 8.5847306,11.8083343 C6.47458413,11.1836196 5,9.0068452 5,6.51375045 L5,5.43581122 C5,2.43833313 7.24335609,0 10.0003314,0 C12.7573066,0 15,2.43833313 15,5.43581122 L15,6.51663264 C15,8.83463432 13.7229107,10.9033265 11.8215256,11.6642248 C11.2654914,11.8875946 10.6855988,12 10.0984161,12" id="Fill-1" fill="#53595A"></path>
                <g id="Group-5" transform="translate(0.000000, 13.000000)" fill="#53595A">
                    <path d="M4.23913,24.3325714 C1.89903,24.3325714 -7e-05,22.3947143 -7e-05,20.0132857 L-7e-05,7.34257143 C-7e-05,3.61828571 2.96863,0.589 6.61843,0.589 L7.34503,0.589 L10.51673,5.129 L13.68773,0.589 L14.41433,0.589 C17.45233,0.589 20.6091677,2.75073556 21.3518677,5.76287842 L20.6721677,5.93716413 C20.0092677,3.24287842 17.13103,1.30328571 14.41433,1.30328571 L14.04823,1.30328571 L10.51673,6.35971429 L6.98453,1.30328571 L6.61843,1.30328571 C3.35503,1.30328571 0.69993,4.01257143 0.69993,7.34257143 L0.69993,20.0132857 C0.69993,22.0011429 2.28473,23.6182857 4.23283,23.6182857 L4.23913,24.3325714 Z" id="Fill-3"></path>
                </g>
                <g id="Group-8" transform="translate(4.000000, 18.000000)">
                    <mask id="mask-2" fill="white">
                        <use xlink:href="#path-1"></use>
                    </mask>
                    <g id="Clip-7"></g>
                    <path d="M13.42495,39.0000696 L8.05525,39.0000696 C7.86205,39.0000696 7.70525,38.8440696 7.70525,38.6518554 L7.70525,18.9359625 L6.30315,18.9359625 L6.30315,38.6518554 C6.30315,38.8440696 6.14705,39.0000696 5.95315,39.0000696 L0.58345,39.0000696 C0.39025,39.0000696 0.23345,38.8440696 0.23345,38.6518554 L0.23345,2.59217679 L0.93345,2.59217679 L0.93345,38.3036411 L5.60315,38.3036411 L5.60315,18.5877482 C5.60315,18.3955339 5.75995,18.2395339 5.95315,18.2395339 L8.05525,18.2395339 C8.24915,18.2395339 8.40525,18.3955339 8.40525,18.5877482 L8.40525,38.3036411 L13.07495,38.3036411 L13.07425,2.47726607 C13.07145,2.30315893 13.19955,2.15412321 13.37245,2.12905179 C13.55165,2.10189107 13.71125,2.20914107 13.76025,2.3755875 L15.73915,9.16715893 C16.00305,10.0725161 16.84865,10.7041768 17.79505,10.7041768 L27.21425,10.7041768 L27.21425,9.57317679 C27.21425,8.25205179 26.13345,7.17676607 24.80555,7.17676607 L18.92205,7.17676607 C18.76945,7.17676607 18.63365,7.07787321 18.58815,6.9337125 L16.66175,0.877569643 L17.32815,0.666551786 L19.17825,6.4803375 L24.80555,6.4803375 C26.51985,6.4803375 27.91425,7.86762321 27.91425,9.57317679 L27.91425,11.0523911 C27.91425,11.2446054 27.75745,11.4006054 27.56425,11.4006054 L17.79505,11.4006054 C16.53925,11.4006054 15.41715,10.5621054 15.06645,9.3614625 L13.77495,4.92939107 L13.77495,38.6518554 C13.77495,38.8440696 13.61815,39.0000696 13.42495,39.0000696" id="Fill-6" fill="#53595A" mask="url(#mask-2)"></path>
                </g>
                <path d="M25.3650739,21 L25,20.6410603 L33.7796494,12.0089325 C33.8772774,11.9149727 34.0326573,11.9109169 34.135098,12.0008208 L38.0285321,15.4624596 L46.6349261,7 L47,7.35893969 L38.2203506,15.9917435 C38.1227226,16.0863792 37.9666552,16.090435 37.8642145,16.0005311 L33.9707803,12.5382164 L25.3650739,21 Z" id="Fill-9" fill="#770D29"></path>
                <path d="M47,12 L46.5208892,12 L46.5208892,7.47911077 L42,7.47911077 L42,7 L46.7604446,7 C46.893318,7 47,7.10732081 47,7.23955539 L47,12 Z" id="Fill-11" fill="#770D29"></path>
                <polygon id="Fill-13" fill="#53595A" points="47 21 25 21 25 1 25.6882097 1 25.6882097 20.2906544 47 20.2906544"></polygon>
            </g>
        </g>
    </g>
</svg>