<?xml version="1.0" encoding="UTF-8"?>
<svg width="62px" height="62px" viewBox="0 0 62 62" version="1.1" xmlns="http://www.w3.org/2000/svg" xmlns:xlink="http://www.w3.org/1999/xlink">
    <!-- Generator: Sketch 52.6 (67491) - http://www.bohemiancoding.com/sketch -->
    <title>toastmasters-leadership-skills-icon</title>
    <desc>Created with Sketch.</desc>
    <defs>
        <polygon id="path-1" points="0.223756098 0.454034483 8.57180488 0.454034483 8.57180488 9.55420345 0.223756098 9.55420345"></polygon>
    </defs>
    <g id="Symbols" stroke="none" stroke-width="1" fill="none" fill-rule="evenodd">
        <g id="Pro-5" transform="translate(-14.000000, -16.000000)">
            <g id="toastmasters-leadership-skills-icon" transform="translate(14.000000, 16.000000)">
                <polygon id="Fill-1" fill="#770D29" points="0 23.5103276 25.1964416 48.1092726 36.7769417 37.8861188 61.4765374 62 62 61.4896724 36.8028191 36.8907274 25.2223189 47.1138812 0.521983853 23"></polygon>
                <polygon id="Fill-2" fill="#770D29" points="0 23 0 38 0.742905255 38 0.742905255 23.7429053 15 23.7429053 15 23"></polygon>
                <g id="Group-16" transform="translate(24.000000, 0.000000)">
                    <path d="M17.7481641,10.2101538 L13.4153415,11.437469 C12.9558809,11.5680236 12.5626973,11.8163194 12.259745,12.1397546 L7.40187805,13.5142241 L4.9674878,10.6386724 C4.59212195,10.1962241 4.0667561,9.92467241 3.48578049,9.87398276 C2.90407317,9.81967241 2.33773171,9.99925862 1.89065854,10.3700172 L1.24529268,10.9051552 L5.39553659,15.8068448 C5.97065854,16.4860862 6.89626829,16.7670517 7.76041463,16.5244655 L11.9161523,15.3495524 L12.1155202,16.0459724 L7.96163415,17.2203621 C7.68943902,17.2971207 7.41212195,17.3347759 7.13773171,17.3347759 C6.26334146,17.3347759 5.41456098,16.9560517 4.83578049,16.2717414 L0.21504878,10.8160862 L1.42090244,9.81532759 C2.01797561,9.32001724 2.76797561,9.08684483 3.55017073,9.15201724 C4.32504878,9.22008621 5.02821951,9.58287931 5.52797561,10.1730517 L7.65797561,12.6879828 L17.6472439,9.86239655 L17.7481641,10.2101538 Z M17.7924679,10.3628188 L17.8491951,10.5582931 L17.7924679,10.3628188 Z M18.8024211,13.8727888 L18.8779756,14.1340862 L18.8024211,13.8727888 Z" id="Combined-Shape" fill="#53595A"></path>
                    <path d="M17.8471951,10.5530177 L17.7485122,10.2100552 L13.4153415,11.437469 C12.0748537,11.8183655 11.2985122,13.201469 11.6811951,14.5288138 L12.1152286,16.044954 L11.6950244,16.1644241 L11.3123415,14.8327345 C10.8455122,13.2099414 11.8003902,11.5147345 13.4394146,11.0534586 L21.9616098,8.62976897 C23.0986829,8.30463103 24.3301463,8.67611379 25.0925854,9.57621724 L29.7103902,15.0318724 L28.5052683,16.0304586 C27.9747805,16.4707345 27.3199024,16.7053552 26.6372195,16.7053552 C26.550878,16.7053552 26.4638049,16.7017345 26.3767317,16.693769 C25.6003902,16.6264241 24.8979512,16.263631 24.3981951,15.6727345 L22.2674634,13.1585276 L18.8744903,14.1231987 L18.7780244,13.7880207 L18.6740811,13.4267765 L22.523561,12.3322862 L24.9579512,15.2078379 C25.3333171,15.6502862 25.8594146,15.9218379 26.441122,15.9725276 C27.0191707,16.0253897 27.588439,15.8472517 28.0347805,15.4764931 L28.6801463,14.9413552 L24.5320976,10.0418379 C23.9562439,9.36114828 23.0277073,9.0809069 22.163561,9.32566552 L17.8471951,10.5530177 Z" id="Combined-Shape" fill="#53595A"></path>
                    <g id="Group-9" transform="translate(8.780488, 0.000000)">
                        <mask id="mask-2" fill="white">
                            <use xlink:href="#path-1"></use>
                        </mask>
                        <g id="Clip-8"></g>
                        <path d="M4.39741463,1.1781 C2.49936585,1.1781 0.955463415,2.70603103 0.955463415,4.58516897 L0.955463415,5.38606552 C0.955463415,6.95382414 1.96521951,8.32027241 3.41034146,8.70913448 C3.70887805,8.78951379 4.014,8.83006552 4.31912195,8.83006552 L4.47790244,8.83006552 C4.88253659,8.83006552 5.28131707,8.75982414 5.66253659,8.61934138 C6.96570732,8.14503103 7.84009756,6.84592759 7.84009756,5.38751379 L7.84009756,4.58516897 C7.84009756,2.70603103 6.29619512,1.1781 4.39741463,1.1781 M4.47790244,9.55420345 L4.31912195,9.55420345 C3.94887805,9.55420345 3.57863415,9.50496207 3.21863415,9.40792759 C1.45521951,8.93361724 0.223756098,7.27968621 0.223756098,5.38606552 L0.223756098,4.58516897 C0.223756098,2.30775517 2.09546341,0.453962069 4.39741463,0.453962069 C6.69936585,0.453962069 8.57180488,2.30775517 8.57180488,4.58516897 L8.57180488,5.38751379 C8.57180488,7.1478931 7.50497561,8.71999655 5.91643902,9.29858276 C5.45326829,9.46803103 4.96960976,9.55420345 4.47790244,9.55420345" id="Fill-7" fill="#53595A" mask="url(#mask-2)"></path>
                    </g>
                    <path d="M23.5404146,41.8550276 L15.9943171,34.4499931 C15.4228537,33.8895103 15.0950488,33.1110621 15.0950488,32.3152345 L15.0950488,27.246269 L15.8267561,27.246269 L15.8267561,32.3152345 C15.8267561,32.9191655 16.0755366,33.5100621 16.509439,33.935131 L23.5374878,40.8325448 L25.9535854,38.4421655 L19.2423659,31.7996483 L19.2423659,27.1796483 L19.9740732,27.1796483 L19.9740732,31.4998552 L26.9882195,38.4421655 L23.5404146,41.8550276 Z" id="Fill-10" fill="#53595A"></path>
                    <path d="M11.3629024,35.3554552 L6.48460976,35.3554552 L6.48387805,25.8344897 C6.48387805,24.1769379 7.84631707,22.8285931 9.52192683,22.8285931 L13.6772927,22.8285931 L11.3292439,14.627731 C10.8916829,13.1113862 11.7829024,11.5240759 13.3150976,11.0895931 L17.6475366,9.86217931 L17.8487561,10.5580759 L13.5163171,11.7854897 C12.3719268,12.1099034 11.7068049,13.2960414 12.0331463,14.4293172 L14.6446098,23.552731 L9.52192683,23.552731 C8.25021951,23.552731 7.21558537,24.5759379 7.21558537,25.8344897 L7.21631707,34.6313172 L10.6311951,34.6313172 L10.6311951,26.9322828 L18.0419268,26.9322828 C19.1555854,26.9322828 20.0804634,26.5245931 20.6460732,25.7823517 C21.2102195,25.0408345 21.3521707,24.0494897 21.0455854,22.9893517 L18.3563232,13.5155029 L19.059494,13.3170891 L21.7487561,22.7902138 C22.1204634,24.0733862 21.9360732,25.2913862 21.2292439,26.2182828 C20.523878,27.1459034 19.3911951,27.6564207 18.0419268,27.6564207 L11.3629024,27.6564207 L11.3629024,35.3554552 Z" id="Fill-14" fill="#53595A"></path>
                </g>
            </g>
        </g>
    </g>
</svg>