<?xml version="1.0" encoding="UTF-8"?>
<svg width="57px" height="56px" viewBox="0 0 57 56" version="1.1" xmlns="http://www.w3.org/2000/svg" xmlns:xlink="http://www.w3.org/1999/xlink">
    <!-- Generator: Sketch 52.6 (67491) - http://www.bohemiancoding.com/sketch -->
    <title>toastmasters-public-speaking-icon</title>
    <desc>Created with Sketch.</desc>
    <defs>
        <polygon id="path-1" points="0 57 57 57 57 0 0 0"></polygon>
    </defs>
    <g id="Symbols" stroke="none" stroke-width="1" fill="none" fill-rule="evenodd">
        <g id="Pro-8" transform="translate(-17.000000, -19.000000)">
            <g id="toastmasters-public-speaking-icon" transform="translate(17.000000, 19.000000)">
                <path d="M28.9996338,9.74831629 C27.197931,9.74831629 25.7323995,11.2464455 25.7323995,13.0873036 L25.7323995,13.8760289 C25.7323995,15.4123223 26.6903781,16.7518084 28.0621624,17.1334497 C28.3434038,17.2127713 28.6327016,17.2516837 28.9241966,17.2516837 L29.0758034,17.2516837 C29.4588483,17.2516837 29.8382313,17.1828386 30.2022338,17.0458967 C31.4377918,16.580444 32.2676005,15.307558 32.2676005,13.8782739 L32.2676005,13.0873036 C32.2676005,11.2464455 30.802069,9.74831629 28.9996338,9.74831629 M29.0758034,18 L28.9241966,18 C28.5675181,18 28.2123043,17.9513594 27.8695413,17.855575 C26.1798956,17.3856323 25,15.7498129 25,13.8760289 L25,13.0873036 C25,10.8333749 26.7943788,9 28.9996338,9 C31.2056212,9 33,10.8333749 33,13.0873036 L33,13.8782739 C33,15.6196059 31.9768379,17.1746071 30.4549117,17.7470691 C30.0096127,17.9154403 29.5460038,18 29.0758034,18" id="Fill-1" fill="#53595A"></path>
                <mask id="mask-2" fill="white">
                    <use xlink:href="#path-1"></use>
                </mask>
                <g id="Clip-4"></g>
                <polygon id="Fill-3" fill="#53595A" mask="url(#mask-2)" points="24 28 25 28 25 24 24 24"></polygon>
                <path d="M36,28 L35.3010252,28 L35.3010252,22.8256308 C35.3010252,20.5552878 33.4801957,18.7088177 31.2413793,18.7088177 L31.0379776,18.7088177 L28.5,22.3188262 L25.9620224,18.7088177 L25.7586207,18.7088177 C23.5198043,18.7088177 21.6989748,20.5552878 21.6989748,22.8256308 L21.6989748,28 L21,28 L21,22.8256308 C21,20.1647292 23.1346692,18 25.7586207,18 L26.3226934,18 L28.5,21.0982421 L30.6773066,18 L31.2413793,18 C33.8653308,18 36,20.1647292 36,22.8256308 L36,28 Z" id="Fill-5" fill="#53595A" mask="url(#mask-2)"></path>
                <polygon id="Fill-6" fill="#53595A" mask="url(#mask-2)" points="32 28 33 28 33 24 32 24"></polygon>
                <polygon id="Fill-7" fill="#53595A" mask="url(#mask-2)" points="28 28 29 28 29 24 28 24"></polygon>
                <path d="M15.6663709,31.2890785 L15.8104043,32 L0,32 L0,0 L57,0 L57,32 L40.1895957,32 L40.3336291,31.2890785 L56.2951314,31.2890785 L56.2951314,0.710921532 L0.703460289,0.710921532 L0.703460289,31.2890785 L15.6663709,31.2890785 Z" id="Combined-Shape" fill="#770D29" mask="url(#mask-2)"></path>
                <polygon id="Fill-10" fill="#53595A" mask="url(#mask-2)" points="39.4927934 36 37.9224434 36 37.9224434 35.2868604 38.9279341 35.2868604 40.1660947 28.7131396 15.8339053 28.7131396 17.0720659 35.2868604 19.0775566 35.2868604 19.0775566 36 16.5072066 36 15 28 41 28"></polygon>
                <path d="M19.7037037,55.3183739 L37.2962963,55.3183739 L37.2962963,31.6816261 L19.7037037,31.6816261 L19.7037037,55.3183739 Z M19,56 L38,56 L38,31 L19,31 L19,56 Z" id="Fill-11" fill="#770D29" mask="url(#mask-2)"></path>
            </g>
        </g>
    </g>
</svg>