<?xml version="1.0" encoding="UTF-8"?>
<svg width="66px" height="49px" viewBox="0 0 66 49" version="1.1" xmlns="http://www.w3.org/2000/svg" xmlns:xlink="http://www.w3.org/1999/xlink">
    <!-- Generator: Sketch 52.6 (67491) - http://www.bohemiancoding.com/sketch -->
    <title>toastmasters-personal-growth-icon</title>
    <desc>Created with Sketch.</desc>
    <defs>
        <polygon id="path-1" points="0.282238714 0.490111111 10.4796075 0.490111111 10.4796075 10.7181556 0.282238714 10.7181556"></polygon>
    </defs>
    <g id="Symbols" stroke="none" stroke-width="1" fill="none" fill-rule="evenodd">
        <g id="Pro-6" transform="translate(-10.000000, -23.000000)">
            <g id="toastmasters-personal-growth-icon" transform="translate(10.000000, 23.000000)">
                <path d="M36.0328134,29 L36.001282,27.6927409 C35.9746967,26.6282854 36.3623478,25.6201502 37.0937533,24.853567 C37.8245405,24.0876095 38.8063427,23.660826 39.8580086,23.6508135 L44.5240418,23.6508135 L47.9826357,19.6570713 L48.5001221,20 L44.857904,24.2765957 L39.8604816,24.2765957 C38.9788381,24.2853567 38.1528383,24.6445557 37.5376663,25.2884856 C36.9231126,25.9330413 36.5966696,26.7809762 36.6195453,27.6770964 L36.6362384,28.3742178 L45.5583963,28.3742178 C46.2285938,28.3742178 46.8567493,28.0413016 47.2382178,27.4824781 L49.490551,24.1814768 L50,24.5369212 L47.7464302,27.8385482 C47.2493465,28.5657071 46.4320024,29 45.5583963,29 L36.0328134,29 Z" id="Fill-3" fill="#53595A"></path>
                <path d="M37.1472758,19.1211885 L37.8338855,19.528767 L37.9965693,20.6469861 C38.0127143,20.7533231 37.9711099,20.85966 37.887901,20.9289026 C37.8313935,20.9752705 37.7612249,21 37.6898143,21 C37.6556614,21 37.6215085,20.9944359 37.5885976,20.9833076 L23.2096121,16.0627519 C23.1071534,16.0275124 23.0307751,15.9415773 23.0071786,15.8364769 C22.984203,15.7319947 23.017114,15.6219483 23.0953551,15.5477598 L35.0910902,4.08686512 C35.175541,4.00649419 35.2978704,3.97867349 35.4071597,4.01700424 C35.5176908,4.05471675 35.5965529,4.15054363 35.6133189,4.26553588 L36.9383737,13.373399 C36.7265634,13.3233127 36.5119594,13.2912787 36.2970553,13.2768287 L35.0855016,4.94868879 L23.8926698,15.6429684 L37.3091649,20.2340032 L37.1472758,19.1211885 Z" id="Combined-Shape" fill="#772432"></path>
                <path d="M45.5626244,48.3932072 L50.27437,48.3932072 L50.27437,35.8526213 L57.5719055,29.877533 C59.2155957,28.5874915 59.8100158,26.4376248 59.0548405,24.5231936 L54.0433926,13.5535941 C53.5960197,12.5742306 52.7205896,11.8897684 51.6426579,11.6755705 C50.5641031,11.4613727 49.4830559,11.7574875 48.6780341,12.4886728 L43.1625128,17.4928927 L38.12988,14.3988564 C36.6319911,13.4771382 34.6630522,13.8636652 33.6480517,15.2768856 L32.8847763,16.3375593 L42.1512508,22.0505131 C43.1369664,22.6591263 44.4298614,22.5529375 45.2959453,21.7920194 L48.3010695,19.19616 L51.7398587,28.14696 L46.2934995,33.276786 C45.8293035,33.7148904 45.5626244,34.3259307 45.5626244,34.9551748 L45.5626244,48.3932072 Z M50.8974519,49 L44.9395425,49 L44.9395425,34.9551748 C44.9395425,34.1627034 45.2753836,33.3920766 45.8604576,32.840502 L51.0139682,27.9867667 L48.0356366,20.2368096 L45.711541,22.2446868 C44.6385939,23.1846088 43.0372733,23.3144625 41.8185251,22.5638598 L32,16.5104952 L33.1371245,14.9285865 C34.3440342,13.2501977 36.6830838,12.7920692 38.4626058,13.8855098 L43.0889891,16.7295474 L48.2537153,12.0445005 C49.2076537,11.1780005 50.4893332,10.8266675 51.7672743,11.0809136 C53.0452153,11.3351598 54.0826467,12.1464417 54.6128895,13.3072363 L59.6311913,24.2913988 C60.4885521,26.4667508 59.8174928,28.8939219 57.9675626,30.3465838 L50.8974519,36.1347799 L50.8974519,49 Z" id="Fill-9" fill="#53595A"></path>
                <path d="M61.1071157,49 L53.7406546,39.3090126 C53.2627135,38.6815567 53,37.8981799 53,37.1028575 L53,33.7718506 L53.6166983,33.7718506 L53.6166983,37.1028575 C53.6166983,37.7592342 53.8343928,38.4055515 54.2278463,38.9236113 L61.2193548,48.1210588 L65.1341556,45.0636258 L57.9989564,35.5964603 L57.9989564,29.640625 L58.6156546,29.640625 L58.6156546,35.3826978 L66,45.1805665 L61.1071157,49 Z" id="Fill-11" fill="#53595A"></path>
                <g id="Group-15" transform="translate(40.000000, 0.000000)">
                    <mask id="mask-2" fill="white">
                        <use xlink:href="#path-1"></use>
                    </mask>
                    <g id="Clip-14"></g>
                    <path d="M1.19628235,6.54121111 L1.53663529,7.40776667 C2.1714,9.02354444 3.75281176,10.1070444 5.47269412,10.1070444 C5.98904706,10.1058222 6.48404706,10.0214889 6.95316471,9.8571 L7.13498824,9.79354444 C7.48957647,9.66948889 7.82734118,9.50021111 8.13857647,9.28998889 C9.65204706,8.26698889 10.2318118,6.3371 9.54851765,4.59665556 L9.20881176,3.73254444 C8.38898824,1.64621111 5.92628235,0.577988889 3.71528235,1.35348889 C1.50687059,2.12715556 0.376458824,4.45487778 1.19628235,6.54121111 M5.47269412,10.7181556 C3.48363529,10.7181556 1.65892941,9.47454444 0.930341176,7.62043333 L0.589988235,6.75387778 C-0.354070588,4.3516 0.947164706,1.67187778 3.49075294,0.780266667 C6.03369412,-0.111344444 8.87169412,1.11821111 9.81510588,3.52048889 L10.1548118,4.3846 C10.9403412,6.38171111 10.2654588,8.60371111 8.51451765,9.78743333 C8.15669412,10.0288222 7.76845882,10.2231556 7.35951765,10.3673778 L7.17769412,10.4303222 C6.63804706,10.6197667 6.06734118,10.7169333 5.47269412,10.7181556" id="Fill-13" fill="#53595A" mask="url(#mask-2)"></path>
                </g>
                <path d="M1.03058642,47.3949086 L42.9694136,47.3949086 L36.1309253,34.6050914 L7.86907469,34.6050914 L1.03058642,47.3949086 Z M44,48 L0,48 L7.48464959,34 L36.5147212,34 L44,48 Z" id="Fill-16" fill="#53595A"></path>
                <path d="M8.00710242,34.3949347 L35.9928976,34.3949347 L29.3102381,21.6050653 L14.6891471,21.6050653 L8.00710242,34.3949347 Z M37,35 L7,35 L14.3140967,21 L29.6859033,21 L37,35 Z" id="Fill-18" fill="#53595A"></path>
            </g>
        </g>
    </g>
</svg>