<?xml version="1.0" encoding="UTF-8"?>
<svg width="54px" height="69px" viewBox="0 0 54 69" version="1.1" xmlns="http://www.w3.org/2000/svg" xmlns:xlink="http://www.w3.org/1999/xlink">
    <!-- Generator: Sketch 52.6 (67491) - http://www.bohemiancoding.com/sketch -->
    <title>toastmasters-potential-icon</title>
    <desc>Created with Sketch.</desc>
    <defs>
        <polygon id="path-1" points="0.672741935 0.623333333 24.7759677 0.623333333 24.7759677 43.8979037 0.672741935 43.8979037"></polygon>
        <polygon id="path-3" points="0 70 54 70 54 1 0 1"></polygon>
    </defs>
    <g id="Symbols" stroke="none" stroke-width="1" fill="none" fill-rule="evenodd">
        <g id="Pro-7" transform="translate(-17.000000, -14.000000)">
            <g id="toastmasters-potential-icon" transform="translate(17.000000, 14.000000)">
                <path d="M27,4.85567598 C25.2554882,4.85567598 23.8362952,6.30690245 23.8362952,8.09184256 L23.8362952,8.8705077 C23.8362952,10.3610953 24.7637466,11.6600114 26.0909471,12.0296634 C26.3635793,12.1058186 26.6445745,12.144324 26.926406,12.144324 L27.0752666,12.144324 C27.4457453,12.144324 27.8120427,12.0758699 28.1666318,11.9432402 C29.3600251,11.4931546 30.1637048,10.2584141 30.1637048,8.87221905 L30.1637048,8.09184256 C30.1637048,6.30690245 28.7445118,4.85567598 27,4.85567598 M27.0752666,13 L26.926406,13 C26.5709806,13 26.2163914,12.9512265 25.8718378,12.8553908 C24.1808488,12.384769 23,10.7461495 23,8.8705077 L23,8.09184256 C23,5.83628066 24.7938532,4 27,4 C29.2053105,4 31,5.83628066 31,8.09184256 L31,8.87221905 C31,10.615231 29.977211,12.1725613 28.4543174,12.7467199 C28.0077357,12.9144324 27.5435919,13 27.0752666,13" id="Fill-1" fill="#770D29"></path>
                <g id="Group-5" transform="translate(14.000000, 0.000000)">
                    <mask id="mask-2" fill="white">
                        <use xlink:href="#path-1"></use>
                    </mask>
                    <g id="Clip-4"></g>
                    <path d="M13.863871,43.0830889 L16.8179032,43.0830889 L16.8179032,17.8409407 C16.8179032,17.7293111 16.8622581,17.5818296 16.9412903,17.5044222 L23.5041935,11.1586444 C23.7993548,10.8742741 23.9695161,10.4733852 23.9695161,10.0602741 L23.9695161,1.4379037 L22.8751613,1.4379037 C22.1453226,1.4379037 21.5509677,2.03842222 21.5509677,2.77664444 L21.5509677,9.58605185 C21.5509677,9.70175556 21.5017742,9.81175556 21.4170968,9.88916296 L17.4477419,13.4833111 C17.3735484,13.5501259 17.2767742,13.5876074 17.1775806,13.5876074 L15.2880645,13.5876074 L13.0606452,16.7499037 C12.9856452,16.8566444 12.8630645,16.9210148 12.7324194,16.9210148 C12.5122581,16.9210148 12.5082258,16.9210148 10.1598387,13.5876074 L8.27112903,13.5876074 C8.17112903,13.5876074 8.07596774,13.5501259 8.00096774,13.4833111 L4.03241935,9.88916296 C3.94693548,9.81175556 3.89854839,9.70175556 3.89854839,9.58605185 L3.89854839,2.77664444 C3.89854839,2.03842222 3.30419355,1.4379037 2.57274194,1.4379037 L1.47919355,1.4379037 L1.47919355,10.0602741 C1.47919355,10.4733852 1.64854839,10.8734593 1.94451613,11.1586444 L8.5066129,17.5044222 C8.58564516,17.5818296 8.63080645,17.6877556 8.63080645,17.7993852 L8.63080645,43.0830889 L11.5848387,43.0830889 L11.5848387,29.2190148 C11.5848387,28.9941259 11.7654839,28.8116074 11.9880645,28.8116074 L13.4606452,28.8116074 C13.6832258,28.8116074 13.863871,28.9941259 13.863871,29.2190148 L13.863871,43.0830889 Z M17.221129,43.8979037 L13.4606452,43.8979037 C13.2380645,43.8979037 13.0574194,43.7153852 13.0574194,43.4904963 L13.0574194,29.6264222 L12.3912903,29.6264222 L12.3912903,43.4904963 C12.3912903,43.7153852 12.2106452,43.8979037 11.9880645,43.8979037 L8.22758065,43.8979037 C8.00419355,43.8979037 7.82435484,43.7153852 7.82435484,43.4904963 L7.82435484,17.9737556 L1.38645161,11.7477556 C0.933225806,11.3093852 0.672741935,10.6942 0.672741935,10.0602741 L0.672741935,1.0304963 C0.672741935,0.804792593 0.852580645,0.623088889 1.07596774,0.623088889 L2.57274194,0.623088889 C3.74935484,0.623088889 4.705,1.58864444 4.705,2.77664444 L4.705,9.40353333 L8.42516129,12.7727926 L10.3687097,12.7727926 C10.4993548,12.7727926 10.621129,12.8363481 10.6969355,12.9439037 C11.3485484,13.8687185 12.2533871,15.151237 12.7275806,15.8169407 L14.7517742,12.9439037 C14.8275806,12.8363481 14.9493548,12.7727926 15.08,12.7727926 L17.0235484,12.7727926 L20.7445161,9.40353333 L20.7445161,2.77664444 C20.7445161,1.58864444 21.7001613,0.623088889 22.8751613,0.623088889 L24.3727419,0.623088889 C24.5953226,0.623088889 24.7759677,0.804792593 24.7759677,1.0304963 L24.7759677,10.0602741 C24.7759677,10.6942 24.5154839,11.3093852 24.0622581,11.7477556 L17.6235484,17.9737556 L17.6243548,43.4904963 C17.6243548,43.7153852 17.4445161,43.8979037 17.221129,43.8979037 Z" id="Fill-3" fill="#770D29" mask="url(#mask-2)"></path>
                </g>
                <mask id="mask-4" fill="white">
                    <use xlink:href="#path-3"></use>
                </mask>
                <g id="Clip-7"></g>
                <path d="M15.784801,52.2 L38.215199,52.2 L38.215199,44.8 L15.784801,44.8 L15.784801,52.2 Z M15,53 L39,53 L39,44 L15,44 L15,53 Z" id="Fill-6" fill="#53595A" mask="url(#mask-4)"></path>
                <path d="M8.7984404,60.2 L44.1999611,60.2 L44.1999611,52.8 L8.7984404,52.8 L8.7984404,60.2 Z M8,61 L45,61 L45,52 L8,52 L8,61 Z" id="Fill-8" fill="#53595A" mask="url(#mask-4)"></path>
                <path d="M0.799336846,68.2 L53.2006632,68.2 L53.2006632,60.8 L0.799336846,60.8 L0.799336846,68.2 Z M0,69 L54,69 L54,60 L0,60 L0,69 Z" id="Fill-9" fill="#53595A" mask="url(#mask-4)"></path>
                <path d="M12.8767974,25.2707921 L13.122791,26.0089109 L16.122228,24.7293318 L15.877767,23.991213 L12.8767974,25.2707921 Z M12.8997874,27 C12.745754,27 12.5993839,26.8934406 12.5419088,26.7201733 L12.0246323,25.1720298 C11.9886146,25.064604 11.9924463,24.9450496 12.0338284,24.8402229 C12.0752105,24.7353961 12.1526104,24.6539605 12.247636,24.6132427 L15.9643629,23.0278467 C16.0601548,22.9871289 16.1659091,22.9914605 16.2578693,23.0382427 C16.3505959,23.0858912 16.4226315,23.1725249 16.4586492,23.2799506 L16.9751593,24.8280941 C17.0502602,25.0524753 16.9491039,25.3019803 16.7521557,25.3868812 L13.0361951,26.9722772 C12.9909813,26.9904703 12.9450012,27 12.8997874,27 Z" id="Fill-10" fill="#770D29" mask="url(#mask-4)"></path>
                <path d="M8.0038225,14.537966 L10.462689,16.9967167 L10.9970085,16.4614106 L8.53814193,14.0026599 L8.0038225,14.537966 Z M10.462689,18 C10.3563237,18 10.2499585,17.9592702 10.1685225,17.8786418 L7.1221539,14.8322181 C7.04487286,14.7540834 7,14.6485183 7,14.537966 C7,14.4274137 7.04487286,14.3218486 7.1221539,14.2437139 L8.24480638,13.121566 C8.40684727,12.959478 8.6694366,12.959478 8.83230846,13.121566 L11.8786771,16.1679897 C11.9559581,16.2461244 12,16.3516895 12,16.4614106 C12,16.5719629 11.9559581,16.6775279 11.8786771,16.7556627 L10.7568556,17.8786418 C10.6745887,17.9592702 10.5682234,18 10.462689,18 Z" id="Fill-11" fill="#770D29" mask="url(#mask-4)"></path>
                <path d="M0.901588984,44.729147 L1.50388742,45.0821617 L3.09807227,42.2704577 L2.49653623,41.917443 L0.901588984,44.729147 Z M1.64264478,46 C1.57784052,46 1.51227385,45.9829312 1.45204401,45.9472418 L0.19102931,45.2062988 C0.102590552,45.1558681 0.0393110963,45.0705239 0.0126269884,44.9712143 C-0.0132947165,44.8719046 0.0011909421,44.7663881 0.0515095456,44.6771646 L2.02765834,41.1935689 C2.13286996,41.008915 2.36616531,40.9445189 2.54837964,41.052363 L3.80939434,41.793306 C3.8970707,41.8437366 3.96035015,41.9290809 3.98703426,42.0283905 C4.01371837,42.1277001 3.99847031,42.2332166 3.9481517,42.3224401 L1.97200291,45.8060359 C1.90186183,45.9301729 1.77377811,46 1.64264478,46 Z" id="Fill-12" fill="#770D29" mask="url(#mask-4)"></path>
                <path d="M9.03812471,33.4435878 L11.3597781,36.028382 L11.9617522,35.5554849 L9.63923632,32.9706907 L9.03812471,33.4435878 Z M11.3080325,37 C11.1847055,37 11.0631033,36.9515805 10.9785854,36.8563555 L8.10066658,33.6542126 C8.02822272,33.5727064 7.99200078,33.4661835 8.00148748,33.3596606 C8.0118366,33.2539447 8.0661695,33.1546848 8.15413706,33.0860905 L9.4150053,32.0934907 C9.50211043,32.0240894 9.61767564,31.9950377 9.72979115,32.0006867 C9.84449394,32.0103706 9.94971003,32.0612111 10.0230163,32.1435242 L12.8992103,35.3456671 C13.0518599,35.5159423 13.0285744,35.7709517 12.8466023,35.9145962 L11.585734,36.905582 C11.5038035,36.9693343 11.4063492,37 11.3080325,37 Z" id="Fill-13" fill="#770D29" mask="url(#mask-4)"></path>
                <path d="M37.8768238,24.729698 L40.8771594,26.0090708 L41.123164,25.271071 L38.122062,23.9916983 L37.8768238,24.729698 Z M41.0994065,27 C41.0541907,27 41.0089749,26.9904718 40.9637592,26.9722817 L37.2476347,25.3871414 C37.0499114,25.3022541 36.9502834,25.0527894 37.0246212,24.8284444 L37.5411541,23.2805506 C37.5764071,23.1731422 37.6492122,23.0865225 37.7419428,23.0388817 C37.8339072,22.9912409 37.9381334,22.9869099 38.0354623,23.0284873 L41.7523531,24.6136276 C41.8473829,24.6543389 41.9247862,24.7357614 41.9661701,24.8405712 C42.0075541,24.945381 42.0113859,25.0649162 41.9753666,25.1723246 L41.4580673,26.7202184 C41.4005896,26.8934578 41.2542131,27 41.0994065,27 Z" id="Fill-14" fill="#770D29" mask="url(#mask-4)"></path>
                <path d="M43.0033243,16.4616663 L43.5368793,16.9968834 L45.9960524,14.5385415 L45.4616663,14.0033243 L43.0033243,16.4616663 Z M43.5368793,18 C43.4263453,18 43.3216289,17.9559526 43.2435072,17.8778309 L42.1215458,16.7558695 C41.9594847,16.5929774 41.9594847,16.3303553 42.1215458,16.1674631 L45.1674631,13.1215458 C45.3303553,12.9594847 45.5929774,12.9594847 45.7550384,13.1215458 L46.8778309,14.2443383 C46.9551215,14.32246 47,14.4280075 47,14.5385415 C47,14.6482443 46.9551215,14.7537918 46.8778309,14.8319136 L43.8310825,17.8778309 C43.7529607,17.9559526 43.6474133,18 43.5368793,18 Z" id="Fill-15" fill="#770D29" mask="url(#mask-4)"></path>
                <path d="M49.9017937,42.2710986 L51.4968099,45.0823195 L52.098372,44.7293654 L50.5033557,41.9181445 L49.9017937,42.2710986 Z M51.3572841,46 C51.2261451,46 51.0972934,45.9301849 51.0279118,45.8060692 L49.0516775,42.323072 C49.0005943,42.2338639 48.9868704,42.1283655 49.0127932,42.029073 C49.0402409,41.9297804 49.1027607,41.8444508 49.1904408,41.7940288 L50.4522725,41.0532132 C50.6337323,40.9438362 50.8678002,41.008997 50.9722539,41.1943948 L52.9484882,44.6773919 C52.998809,44.7666001 53.0132953,44.8720985 52.9873725,44.971391 C52.9606872,45.0706836 52.897405,45.1560132 52.8089624,45.2064352 L51.5478932,45.9472508 C51.4876607,45.9829341 51.4228536,46 51.3572841,46 Z" id="Fill-16" fill="#770D29" mask="url(#mask-4)"></path>
                <path d="M41.0383233,35.5555346 L41.6402671,36.0284154 L43.9618042,33.44371 L43.3598604,32.9708291 L41.0383233,35.5555346 Z M41.6920102,37 C41.5936984,37 41.4953867,36.9693354 41.415185,36.9055852 L40.1543799,35.9138266 C40.0672792,35.8452346 40.0120866,35.746785 40.001738,35.6394588 C39.9913894,35.5337466 40.0276095,35.4280343 40.1009121,35.345724 L42.9778244,32.1428842 C43.051127,32.0613808 43.1572002,32.0097351 43.2710348,32.0008585 C43.3822823,31.9944028 43.4978418,32.0242605 43.5858049,32.0936594 L44.84661,33.085418 C45.0285729,33.2290576 45.0518573,33.4840582 44.8992154,33.6543276 L42.0223031,36.8555535 C41.9369272,36.9507752 41.8144687,37 41.6920102,37 Z" id="Fill-17" fill="#770D29" mask="url(#mask-4)"></path>
            </g>
        </g>
    </g>
</svg>