<?xml version="1.0" encoding="UTF-8"?>
<svg width="63px" height="59px" viewBox="0 0 63 59" version="1.1" xmlns="http://www.w3.org/2000/svg" xmlns:xlink="http://www.w3.org/1999/xlink">
    <!-- Generator: Sketch 52.6 (67491) - http://www.bohemiancoding.com/sketch -->
    <title>toastmasters-confidence-icon</title>
    <desc>Created with Sketch.</desc>
    <g id="Symbols" stroke="none" stroke-width="1" fill="none" fill-rule="evenodd">
        <g id="Pro-4" transform="translate(-11.000000, -18.000000)">
            <g id="toastmasters-confidence-icon" transform="translate(11.000000, 18.000000)">
                <path d="M11.5,0.758054327 C8.8902983,0.758054327 6.76665737,2.85786481 6.76665737,5.43828174 L6.76665737,6.51244473 C6.76665737,8.66456096 8.15660719,10.5415035 10.1453164,11.0766898 C10.5516448,11.1866077 10.9717731,11.2419457 11.3942013,11.2419457 L11.6080987,11.2419457 C12.1639253,11.2419457 12.7136186,11.1449147 13.2380123,10.953127 C15.0296905,10.3004422 16.2333426,8.51674037 16.2333426,6.51547694 L16.2333426,5.43828174 C16.2333426,2.85786481 14.1097017,0.758054327 11.5,0.758054327 M11.6080987,12 L11.3942013,12 C10.9035406,12 10.4159465,11.9355654 9.94368553,11.8082123 C7.622247,11.1835755 6,9.00568541 6,6.51244473 L6,5.43828174 C6,2.43941883 8.46710343,0 11.5,0 C14.5321299,0 17,2.43941883 17,5.43828174 L17,6.51547694 C17,8.83284902 15.594717,10.9023373 13.5032757,11.6641819 C12.8930164,11.8870499 12.2551575,12 11.6080987,12" id="Fill-1" fill="#53595A"></path>
                <path d="M17.5558208,38 L17.5558208,37.239158 C19.5809577,37.239158 21.2276366,35.616282 21.2276366,33.6221151 L21.2276366,20.8346437 C21.2276366,17.4854172 18.4618031,14.760842 15.0618593,14.760842 L6.93814071,14.760842 C3.53819688,14.760842 0.772363432,17.4854172 0.772363432,20.8346437 L0.772363432,33.6221151 C0.772363432,35.616282 2.41981463,37.239158 4.44417919,37.239158 L4.45113046,38 C1.99347002,38 0,36.0362668 0,33.6221151 L0,20.8346437 C0,17.0661933 3.11185227,14 6.93814071,14 L15.0618593,14 C18.8881477,14 22,17.0661933 22,20.8346437 L22,33.6221151 C22,36.0362668 20.00653,38 17.5558208,38" id="Fill-3" fill="#53595A"></path>
                <polygon id="Fill-5" fill="#53595A" points="18 59 11.7023615 59 11.7023615 38.0345409 10.2968767 38.0345409 10.2968767 59 4 59 4 22 4.76178039 22 4.76178039 58.2291827 9.53509631 58.2291827 9.53509631 37.2637237 12.4641419 37.2637237 12.4641419 58.2291827 17.2382196 58.2291827 17.2382196 22 18 22"></polygon>
                <path d="M37.5,21 C33.8940546,21 30.5043313,22.404138 27.9534152,24.9541333 C25.4041817,27.5041286 24,30.8945876 24,34.5004207 C24,38.1062537 25.4041817,41.4958714 27.9534152,44.0458667 C30.5043313,46.595862 33.8940546,48 37.5,48 C41.1059454,48 44.4956687,46.595862 47.0457435,44.0458667 C49.5949769,41.4958714 51,38.1062537 51,34.5004207 C51,30.8945876 49.5949769,27.5041286 47.0457435,24.9541333 C44.4956687,22.404138 41.1059454,21 37.5,21" id="Fill-9" stroke="#53595A"></path>
                <path d="M37.5,24 C34.6953758,24 32.0589243,25.0921073 30.0748785,27.075437 C28.0921413,29.0587667 27,31.6957904 27,34.5003272 C27,37.304864 28.0921413,39.9412333 30.0748785,41.924563 C32.0589243,43.9078927 34.6953758,45 37.5,45 C40.3046242,45 42.9410757,43.9078927 44.9244672,41.924563 C46.9072043,39.9412333 48,37.304864 48,34.5003272 C48,31.6957904 46.9072043,29.0587667 44.9244672,27.075437 C42.9410757,25.0921073 40.3046242,24 37.5,24" id="Fill-9" stroke="#53595A"></path>
                <polygon id="Fill-11" fill="#53595A" points="51.1159245 50 46 44.8840755 46.5257972 44.3582783 51.1159245 48.9484057 52.9491494 47.1159245 48.3582783 42.5257972 48.8848192 42 54 47.1159245"></polygon>
                <path d="M51.1153893,49.6821903 L59.3172447,57.8853314 L61.8861872,55.3170214 L53.6835435,47.1146686 L51.1153893,49.6821903 Z M59.3172447,59 L50,49.6821903 L53.6835435,46 L63,55.3170214 L59.3172447,59 Z" id="Fill-13" fill="#53595A"></path>
                <polygon id="Fill-17" fill="#770D29" points="37 41 38 41 38 27 37 27"></polygon>
                <polygon id="Fill-19" fill="#770D29" points="31 35 45 35 45 34 31 34"></polygon>
            </g>
        </g>
    </g>
</svg>