<?xml version="1.0" encoding="UTF-8"?>
<svg width="56px" height="64px" viewBox="0 0 56 64" version="1.1" xmlns="http://www.w3.org/2000/svg" xmlns:xlink="http://www.w3.org/1999/xlink">
    <!-- Generator: Sketch 52.6 (67491) - http://www.bohemiancoding.com/sketch -->
    <title>toastmasters-networking-icon</title>
    <desc>Created with Sketch.</desc>
    <defs>
        <polygon id="path-1" points="0 64 56 64 56 0 0 0"></polygon>
    </defs>
    <g id="Symbols" stroke="none" stroke-width="1" fill="none" fill-rule="evenodd">
        <g id="Pro-1" transform="translate(-15.000000, -17.000000)">
            <g id="toastmasters-networking-icon" transform="translate(15.000000, 17.000000)">
                <path d="M10.000361,6.72003666 C7.64134595,6.72003666 5.7220738,8.63389409 5.7220738,10.9862538 L5.7220738,11.9683838 C5.7220738,13.9312038 6.97776013,15.6420109 8.77572388,16.1294757 C9.14542566,16.2295608 9.52523648,16.2799633 9.90360315,16.2799633 L10.0985631,16.2799633 C10.5996823,16.2799633 11.0964691,16.1913988 11.5723157,16.0164299 C13.1904831,15.4216796 14.2779262,13.7951168 14.2779262,11.970544 L14.2779262,10.9862538 C14.2779262,8.63389409 12.3593761,6.72003666 10.000361,6.72003666 M10.0985631,17 L9.90360315,17 C9.46169399,17 9.01906275,16.940957 8.58654054,16.8243111 C6.47447469,16.2511619 5,14.2545002 5,11.9683838 L5,10.9862538 C5,8.23643385 7.24348328,6 10.000361,6 C12.7565167,6 15,8.23643385 15,10.9862538 L15,11.970544 C15,14.0953721 13.7226515,15.9933888 11.8214312,16.6925443 C11.2654343,16.8970348 10.684887,17 10.0985631,17" id="Fill-1" fill="#53595A"></path>
                <path d="M15.1536417,39 L15.1536417,38.3093014 C16.8931173,38.3093014 18.3080845,36.8968228 18.3080845,35.1604065 L18.3080845,23.9862847 C18.3080845,21.0660111 15.9278951,18.6906986 13.0031682,18.6906986 L5.99683176,18.6906986 C3.07141296,18.6906986 0.691915513,21.0660111 0.691915513,23.9862847 L0.691915513,35.1604065 C0.691915513,36.8968228 2.10688274,38.3093014 3.84566642,38.3093014 L3.85189366,39 C1.72494538,39 0,37.2780884 0,35.1604065 L0,23.9862847 C0,20.6847454 2.6894756,18 5.99683176,18 L13.0031682,18 C16.3098325,18 19,20.6847454 19,23.9862847 L19,35.1604065 C19,37.2780884 17.2743627,39 15.1536417,39" id="Fill-3" fill="#53595A"></path>
                <polygon id="Fill-5" fill="#53595A" points="16 57 10.5881557 57 10.5881557 38.8745809 9.41116751 38.8745809 9.41116751 57 4 57 4 25 4.67681895 25 4.67681895 56.3077938 8.73434856 56.3077938 8.73434856 38.1823747 11.2649746 38.1823747 11.2649746 56.3077938 15.323181 56.3077938 15.323181 25 16 25"></polygon>
                <path d="M36,55 L31.0753734,55 C29.3796457,55 28,53.6057841 28,51.891446 L28,12.107852 C28,10.3942159 29.3796457,9 31.0753734,9 L36,9 L36,9.70202213 L31.0753734,9.70202213 C29.7624175,9.70202213 28.6946857,10.7817322 28.6946857,12.107852 L28.6946857,51.891446 C28.6946857,53.2182678 29.7624175,54.2979779 31.0753734,54.2979779 L36,54.2979779 L36,55 Z" id="Fill-7" fill="#770D29"></path>
                <mask id="mask-2" fill="white">
                    <use xlink:href="#path-1"></use>
                </mask>
                <g id="Clip-10"></g>
                <polygon id="Fill-9" fill="#770D29" mask="url(#mask-2)" points="21 31.75 36 31.75 36 31 21 31"></polygon>
                <g id="Group" mask="url(#mask-2)">
                    <g transform="translate(37.000000, 22.000000)">
                        <path d="M9.49999778,4.67528458 C8.75413698,4.67731044 8.06245313,4.93999614 7.54369025,5.41539649 C7.02418521,5.89079684 6.73994174,6.52083735 6.74216819,7.19139495 L6.74365249,7.79577465 C6.74736324,8.95051129 7.5592754,9.95465946 8.71702947,10.238279 C8.95154889,10.2956782 9.19348981,10.3247154 9.43765717,10.3247154 C9.44507867,10.3247154 9.57495493,10.3240401 9.57495493,10.3240401 C9.90001665,10.3233648 10.2191412,10.2706926 10.5241648,10.1666988 C11.5646592,9.81487555 12.2615381,8.85597145 12.2578274,7.78226896 L12.2556009,7.1758634 C12.2533745,6.50598109 11.9646781,5.87661586 11.4422045,5.40459194 C10.9219573,4.93391858 10.2324999,4.67528458 9.49999778,4.67528458 M9.43839932,11 C9.12743845,11 8.82018833,10.9635346 8.52407046,10.8899286 C7.04348111,10.5279761 6.00669749,9.2564152 6.00150244,7.7978005 L6.00001814,7.1934208 C5.99704954,6.34323751 6.35847662,5.54234999 7.01676371,4.93932086 C7.67579295,4.33629172 8.55375646,4.00270114 9.48738123,4 C10.4299118,4 11.3056488,4.32818831 11.9654202,4.92513988 C12.6281602,5.52479259 12.9947824,6.32297897 12.997751,7.17383755 L12.9999774,7.77956782 C13.0051725,9.13553926 12.1138503,10.3497009 10.7831752,10.7994405 C10.3957729,10.9317963 9.98981681,10.9986494 9.57718138,10.9993247 C9.57718138,10.9993247 9.44804727,11 9.43839932,11" id="Fill-14" fill="#53595A"></path>
                        <path d="M16.3043213,16 L15.6092217,16 L15.6092217,14.8791284 C15.6092217,13.6670072 14.2983963,12.680967 13.060424,12.680967 L6.01464844,12.680967 C4.77737124,12.680967 3.35229268,13.6670072 3.35229268,14.8791284 L3.35229268,16 L2.65719313,16 L2.65719313,14.8791284 C2.65719313,13.2911134 4.39367629,12 6.01464844,12 L13.060424,12 C14.6820913,12 16.3043213,13.2911134 16.3043213,14.8791284 L16.3043213,16 Z" id="Fill-15" fill="#53595A"></path>
                        <path d="M9.5,0.696251237 C4.64521803,0.696251237 0.696225724,4.64538825 0.696225724,9.50034813 C0.696225724,14.3546117 4.64521803,18.3037488 9.5,18.3037488 C14.354782,18.3037488 18.3037743,14.3546117 18.3037743,9.50034813 C18.3037743,4.64538825 14.354782,0.696251237 9.5,0.696251237 M9.5,19 C4.26229388,19 0,14.7382462 0,9.50034813 C0,4.26175382 4.26229388,0 9.5,0 C14.7377061,0 19,4.26175382 19,9.50034813 C19,14.7382462 14.7377061,19 9.5,19" id="Fill-16" fill="#770D29"></path>
                    </g>
                </g>
                <g id="Group-Copy-2" mask="url(#mask-2)">
                    <g transform="translate(37.000000, 45.000000)">
                        <path d="M9.49999778,4.67528458 C8.75413698,4.67731044 8.06245313,4.93999614 7.54369025,5.41539649 C7.02418521,5.89079684 6.73994174,6.52083735 6.74216819,7.19139495 L6.74365249,7.79577465 C6.74736324,8.95051129 7.5592754,9.95465946 8.71702947,10.238279 C8.95154889,10.2956782 9.19348981,10.3247154 9.43765717,10.3247154 C9.44507867,10.3247154 9.57495493,10.3240401 9.57495493,10.3240401 C9.90001665,10.3233648 10.2191412,10.2706926 10.5241648,10.1666988 C11.5646592,9.81487555 12.2615381,8.85597145 12.2578274,7.78226896 L12.2556009,7.1758634 C12.2533745,6.50598109 11.9646781,5.87661586 11.4422045,5.40459194 C10.9219573,4.93391858 10.2324999,4.67528458 9.49999778,4.67528458 M9.43839932,11 C9.12743845,11 8.82018833,10.9635346 8.52407046,10.8899286 C7.04348111,10.5279761 6.00669749,9.2564152 6.00150244,7.7978005 L6.00001814,7.1934208 C5.99704954,6.34323751 6.35847662,5.54234999 7.01676371,4.93932086 C7.67579295,4.33629172 8.55375646,4.00270114 9.48738123,4 C10.4299118,4 11.3056488,4.32818831 11.9654202,4.92513988 C12.6281602,5.52479259 12.9947824,6.32297897 12.997751,7.17383755 L12.9999774,7.77956782 C13.0051725,9.13553926 12.1138503,10.3497009 10.7831752,10.7994405 C10.3957729,10.9317963 9.98981681,10.9986494 9.57718138,10.9993247 C9.57718138,10.9993247 9.44804727,11 9.43839932,11" id="Fill-14" fill="#53595A"></path>
                        <path d="M16.3043213,16 L15.6092217,16 L15.6092217,14.8791284 C15.6092217,13.6670072 14.2983963,12.680967 13.060424,12.680967 L6.01464844,12.680967 C4.77737124,12.680967 3.35229268,13.6670072 3.35229268,14.8791284 L3.35229268,16 L2.65719313,16 L2.65719313,14.8791284 C2.65719313,13.2911134 4.39367629,12 6.01464844,12 L13.060424,12 C14.6820913,12 16.3043213,13.2911134 16.3043213,14.8791284 L16.3043213,16 Z" id="Fill-15" fill="#53595A"></path>
                        <path d="M9.5,0.696251237 C4.64521803,0.696251237 0.696225724,4.64538825 0.696225724,9.50034813 C0.696225724,14.3546117 4.64521803,18.3037488 9.5,18.3037488 C14.354782,18.3037488 18.3037743,14.3546117 18.3037743,9.50034813 C18.3037743,4.64538825 14.354782,0.696251237 9.5,0.696251237 M9.5,19 C4.26229388,19 0,14.7382462 0,9.50034813 C0,4.26175382 4.26229388,0 9.5,0 C14.7377061,0 19,4.26175382 19,9.50034813 C19,14.7382462 14.7377061,19 9.5,19" id="Fill-16" fill="#770D29"></path>
                    </g>
                </g>
                <g id="Group-Copy" mask="url(#mask-2)">
                    <g transform="translate(37.000000, 0.000000)">
                        <path d="M9.49999778,4.67528458 C8.75413698,4.67731044 8.06245313,4.93999614 7.54369025,5.41539649 C7.02418521,5.89079684 6.73994174,6.52083735 6.74216819,7.19139495 L6.74365249,7.79577465 C6.74736324,8.95051129 7.5592754,9.95465946 8.71702947,10.238279 C8.95154889,10.2956782 9.19348981,10.3247154 9.43765717,10.3247154 C9.44507867,10.3247154 9.57495493,10.3240401 9.57495493,10.3240401 C9.90001665,10.3233648 10.2191412,10.2706926 10.5241648,10.1666988 C11.5646592,9.81487555 12.2615381,8.85597145 12.2578274,7.78226896 L12.2556009,7.1758634 C12.2533745,6.50598109 11.9646781,5.87661586 11.4422045,5.40459194 C10.9219573,4.93391858 10.2324999,4.67528458 9.49999778,4.67528458 M9.43839932,11 C9.12743845,11 8.82018833,10.9635346 8.52407046,10.8899286 C7.04348111,10.5279761 6.00669749,9.2564152 6.00150244,7.7978005 L6.00001814,7.1934208 C5.99704954,6.34323751 6.35847662,5.54234999 7.01676371,4.93932086 C7.67579295,4.33629172 8.55375646,4.00270114 9.48738123,4 C10.4299118,4 11.3056488,4.32818831 11.9654202,4.92513988 C12.6281602,5.52479259 12.9947824,6.32297897 12.997751,7.17383755 L12.9999774,7.77956782 C13.0051725,9.13553926 12.1138503,10.3497009 10.7831752,10.7994405 C10.3957729,10.9317963 9.98981681,10.9986494 9.57718138,10.9993247 C9.57718138,10.9993247 9.44804727,11 9.43839932,11" id="Fill-14" fill="#53595A"></path>
                        <path d="M16.3043213,16 L15.6092217,16 L15.6092217,14.8791284 C15.6092217,13.6670072 14.2983963,12.680967 13.060424,12.680967 L6.01464844,12.680967 C4.77737124,12.680967 3.35229268,13.6670072 3.35229268,14.8791284 L3.35229268,16 L2.65719313,16 L2.65719313,14.8791284 C2.65719313,13.2911134 4.39367629,12 6.01464844,12 L13.060424,12 C14.6820913,12 16.3043213,13.2911134 16.3043213,14.8791284 L16.3043213,16 Z" id="Fill-15" fill="#53595A"></path>
                        <path d="M9.5,0.696251237 C4.64521803,0.696251237 0.696225724,4.64538825 0.696225724,9.50034813 C0.696225724,14.3546117 4.64521803,18.3037488 9.5,18.3037488 C14.354782,18.3037488 18.3037743,14.3546117 18.3037743,9.50034813 C18.3037743,4.64538825 14.354782,0.696251237 9.5,0.696251237 M9.5,19 C4.26229388,19 0,14.7382462 0,9.50034813 C0,4.26175382 4.26229388,0 9.5,0 C14.7377061,0 19,4.26175382 19,9.50034813 C19,14.7382462 14.7377061,19 9.5,19" id="Fill-16" fill="#770D29"></path>
                    </g>
                </g>
            </g>
        </g>
    </g>
</svg>